<svg xmlns="http://www.w3.org/2000/svg" xmlns:xlink="http://www.w3.org/1999/xlink" width="512" zoomAndPan="magnify" viewBox="0 0 384 383.999986" height="512" preserveAspectRatio="xMidYMid meet" version="1.0"><defs><g/><clipPath id="e644009cc7"><rect x="0" width="277" y="0" height="65"/></clipPath></defs><path fill="#ffffff" d="M 250.875 310.5 C 257.476562 313.351562 265.125 312 270.375 307.050781 L 378.375 205.050781 C 381.976562 201.675781 384 196.949219 384 192 C 384 187.050781 381.976562 182.324219 378.375 178.949219 L 270.375 76.949219 C 265.125 72 257.476562 70.648438 250.875 73.5 C 244.273438 76.351562 240 82.875 240 90 L 240 144 L 24 144 C 10.726562 144 0 154.726562 0 168 L 0 216 C 0 229.273438 10.726562 240 24 240 L 240 240 L 240 294 C 240 301.199219 244.273438 307.648438 250.875 310.5 Z M 250.875 310.5 " fill-opacity="1" fill-rule="nonzero"/><g transform="matrix(1, 0, 0, 1, 38, 159)"><g clip-path="url(#e644009cc7)"><g fill="#000000" fill-opacity="1"><g transform="translate(0.400004, 50.419322)"><g><path d="M 32.25 -6.703125 L 32.25 0 L 4.28125 0 L 4.28125 -36.125 L 31.578125 -36.125 L 31.578125 -29.421875 L 12.59375 -29.421875 L 12.59375 -21.578125 L 29.359375 -21.578125 L 29.359375 -15.0625 L 12.59375 -15.0625 L 12.59375 -6.703125 Z M 32.25 -6.703125 "/></g></g></g><g fill="#000000" fill-opacity="1"><g transform="translate(35.028798, 50.419322)"><g><path d="M 20.59375 -28.171875 C 24.03125 -28.171875 26.804688 -27.140625 28.921875 -25.078125 C 31.035156 -23.015625 32.09375 -19.953125 32.09375 -15.890625 L 32.09375 0 L 24.046875 0 L 24.046875 -14.65625 C 24.046875 -16.851562 23.5625 -18.492188 22.59375 -19.578125 C 21.632812 -20.671875 20.242188 -21.21875 18.421875 -21.21875 C 16.390625 -21.21875 14.769531 -20.585938 13.5625 -19.328125 C 12.363281 -18.066406 11.765625 -16.203125 11.765625 -13.734375 L 11.765625 0 L 3.71875 0 L 3.71875 -27.765625 L 11.40625 -27.765625 L 11.40625 -24.515625 C 12.46875 -25.679688 13.789062 -26.582031 15.375 -27.21875 C 16.957031 -27.851562 18.695312 -28.171875 20.59375 -28.171875 Z M 20.59375 -28.171875 "/></g></g></g><g fill="#000000" fill-opacity="1"><g transform="translate(70.9994, 50.419322)"><g><path d="M 17.140625 0.40625 C 14.179688 0.40625 11.519531 -0.203125 9.15625 -1.421875 C 6.800781 -2.640625 4.960938 -4.332031 3.640625 -6.5 C 2.316406 -8.664062 1.65625 -11.128906 1.65625 -13.890625 C 1.65625 -16.640625 2.316406 -19.097656 3.640625 -21.265625 C 4.960938 -23.429688 6.800781 -25.125 9.15625 -26.34375 C 11.519531 -27.5625 14.179688 -28.171875 17.140625 -28.171875 C 20.054688 -28.171875 22.609375 -27.5625 24.796875 -26.34375 C 26.984375 -25.125 28.578125 -23.378906 29.578125 -21.109375 L 23.328125 -17.75 C 21.878906 -20.300781 19.796875 -21.578125 17.078125 -21.578125 C 14.984375 -21.578125 13.25 -20.882812 11.875 -19.5 C 10.5 -18.125 9.8125 -16.253906 9.8125 -13.890625 C 9.8125 -11.515625 10.5 -9.632812 11.875 -8.25 C 13.25 -6.875 14.984375 -6.1875 17.078125 -6.1875 C 19.835938 -6.1875 21.921875 -7.460938 23.328125 -10.015625 L 29.578125 -6.609375 C 28.578125 -4.398438 26.984375 -2.675781 24.796875 -1.4375 C 22.609375 -0.207031 20.054688 0.40625 17.140625 0.40625 Z M 17.140625 0.40625 "/></g></g></g><g fill="#000000" fill-opacity="1"><g transform="translate(101.138318, 50.419322)"><g><path d="M 16.921875 0.40625 C 14.003906 0.40625 11.382812 -0.203125 9.0625 -1.421875 C 6.738281 -2.640625 4.921875 -4.332031 3.609375 -6.5 C 2.304688 -8.664062 1.65625 -11.128906 1.65625 -13.890625 C 1.65625 -16.640625 2.304688 -19.097656 3.609375 -21.265625 C 4.921875 -23.429688 6.738281 -25.125 9.0625 -26.34375 C 11.382812 -27.5625 14.003906 -28.171875 16.921875 -28.171875 C 19.847656 -28.171875 22.460938 -27.5625 24.765625 -26.34375 C 27.078125 -25.125 28.882812 -23.429688 30.1875 -21.265625 C 31.5 -19.097656 32.15625 -16.640625 32.15625 -13.890625 C 32.15625 -11.128906 31.5 -8.664062 30.1875 -6.5 C 28.882812 -4.332031 27.078125 -2.640625 24.765625 -1.421875 C 22.460938 -0.203125 19.847656 0.40625 16.921875 0.40625 Z M 16.921875 -6.1875 C 18.992188 -6.1875 20.691406 -6.882812 22.015625 -8.28125 C 23.335938 -9.675781 24 -11.546875 24 -13.890625 C 24 -16.222656 23.335938 -18.085938 22.015625 -19.484375 C 20.691406 -20.878906 18.992188 -21.578125 16.921875 -21.578125 C 14.859375 -21.578125 13.15625 -20.878906 11.8125 -19.484375 C 10.476562 -18.085938 9.8125 -16.222656 9.8125 -13.890625 C 9.8125 -11.546875 10.476562 -9.675781 11.8125 -8.28125 C 13.15625 -6.882812 14.859375 -6.1875 16.921875 -6.1875 Z M 16.921875 -6.1875 "/></g></g></g><g fill="#000000" fill-opacity="1"><g transform="translate(134.941395, 50.419322)"><g><path d="M 20.59375 -28.171875 C 24.03125 -28.171875 26.804688 -27.140625 28.921875 -25.078125 C 31.035156 -23.015625 32.09375 -19.953125 32.09375 -15.890625 L 32.09375 0 L 24.046875 0 L 24.046875 -14.65625 C 24.046875 -16.851562 23.5625 -18.492188 22.59375 -19.578125 C 21.632812 -20.671875 20.242188 -21.21875 18.421875 -21.21875 C 16.390625 -21.21875 14.769531 -20.585938 13.5625 -19.328125 C 12.363281 -18.066406 11.765625 -16.203125 11.765625 -13.734375 L 11.765625 0 L 3.71875 0 L 3.71875 -27.765625 L 11.40625 -27.765625 L 11.40625 -24.515625 C 12.46875 -25.679688 13.789062 -26.582031 15.375 -27.21875 C 16.957031 -27.851562 18.695312 -28.171875 20.59375 -28.171875 Z M 20.59375 -28.171875 "/></g></g></g><g fill="#000000" fill-opacity="1"><g transform="translate(170.602341, 50.419322)"><g><path d="M 21.625 -1.34375 C 20.832031 -0.757812 19.859375 -0.320312 18.703125 -0.03125 C 17.554688 0.257812 16.34375 0.40625 15.0625 0.40625 C 11.757812 0.40625 9.207031 -0.429688 7.40625 -2.109375 C 5.601562 -3.796875 4.703125 -6.273438 4.703125 -9.546875 L 4.703125 -20.953125 L 0.40625 -20.953125 L 0.40625 -27.140625 L 4.703125 -27.140625 L 4.703125 -33.90625 L 12.75 -33.90625 L 12.75 -27.140625 L 19.65625 -27.140625 L 19.65625 -20.953125 L 12.75 -20.953125 L 12.75 -9.65625 C 12.75 -8.476562 13.046875 -7.570312 13.640625 -6.9375 C 14.242188 -6.300781 15.097656 -5.984375 16.203125 -5.984375 C 17.472656 -5.984375 18.554688 -6.328125 19.453125 -7.015625 Z M 21.625 -1.34375 "/></g></g></g><g fill="#000000" fill-opacity="1"><g transform="translate(193.051706, 50.419322)"><g><path d="M 11.40625 -24.09375 C 12.363281 -25.4375 13.660156 -26.453125 15.296875 -27.140625 C 16.929688 -27.828125 18.816406 -28.171875 20.953125 -28.171875 L 20.953125 -20.75 C 20.054688 -20.8125 19.453125 -20.84375 19.140625 -20.84375 C 16.835938 -20.84375 15.03125 -20.195312 13.71875 -18.90625 C 12.414062 -17.625 11.765625 -15.691406 11.765625 -13.109375 L 11.765625 0 L 3.71875 0 L 3.71875 -27.765625 L 11.40625 -27.765625 Z M 11.40625 -24.09375 "/></g></g></g><g fill="#000000" fill-opacity="1"><g transform="translate(214.830167, 50.419322)"><g><path d="M 16.921875 0.40625 C 14.003906 0.40625 11.382812 -0.203125 9.0625 -1.421875 C 6.738281 -2.640625 4.921875 -4.332031 3.609375 -6.5 C 2.304688 -8.664062 1.65625 -11.128906 1.65625 -13.890625 C 1.65625 -16.640625 2.304688 -19.097656 3.609375 -21.265625 C 4.921875 -23.429688 6.738281 -25.125 9.0625 -26.34375 C 11.382812 -27.5625 14.003906 -28.171875 16.921875 -28.171875 C 19.847656 -28.171875 22.460938 -27.5625 24.765625 -26.34375 C 27.078125 -25.125 28.882812 -23.429688 30.1875 -21.265625 C 31.5 -19.097656 32.15625 -16.640625 32.15625 -13.890625 C 32.15625 -11.128906 31.5 -8.664062 30.1875 -6.5 C 28.882812 -4.332031 27.078125 -2.640625 24.765625 -1.421875 C 22.460938 -0.203125 19.847656 0.40625 16.921875 0.40625 Z M 16.921875 -6.1875 C 18.992188 -6.1875 20.691406 -6.882812 22.015625 -8.28125 C 23.335938 -9.675781 24 -11.546875 24 -13.890625 C 24 -16.222656 23.335938 -18.085938 22.015625 -19.484375 C 20.691406 -20.878906 18.992188 -21.578125 16.921875 -21.578125 C 14.859375 -21.578125 13.15625 -20.878906 11.8125 -19.484375 C 10.476562 -18.085938 9.8125 -16.222656 9.8125 -13.890625 C 9.8125 -11.546875 10.476562 -9.675781 11.8125 -8.28125 C 13.15625 -6.882812 14.859375 -6.1875 16.921875 -6.1875 Z M 16.921875 -6.1875 "/></g></g></g><g fill="#000000" fill-opacity="1"><g transform="translate(248.633259, 50.419322)"><g><path d="M 13.0625 0.40625 C 10.75 0.40625 8.492188 0.125 6.296875 -0.4375 C 4.097656 -1.007812 2.34375 -1.722656 1.03125 -2.578125 L 3.71875 -8.359375 C 4.957031 -7.566406 6.453125 -6.921875 8.203125 -6.421875 C 9.960938 -5.921875 11.679688 -5.671875 13.359375 -5.671875 C 16.765625 -5.671875 18.46875 -6.515625 18.46875 -8.203125 C 18.46875 -8.992188 18.003906 -9.5625 17.078125 -9.90625 C 16.148438 -10.25 14.722656 -10.539062 12.796875 -10.78125 C 10.523438 -11.125 8.648438 -11.519531 7.171875 -11.96875 C 5.691406 -12.414062 4.410156 -13.207031 3.328125 -14.34375 C 2.242188 -15.476562 1.703125 -17.097656 1.703125 -19.203125 C 1.703125 -20.953125 2.207031 -22.503906 3.21875 -23.859375 C 4.238281 -25.222656 5.71875 -26.28125 7.65625 -27.03125 C 9.601562 -27.789062 11.898438 -28.171875 14.546875 -28.171875 C 16.515625 -28.171875 18.46875 -27.957031 20.40625 -27.53125 C 22.351562 -27.101562 23.960938 -26.507812 25.234375 -25.75 L 22.546875 -20.03125 C 20.109375 -21.40625 17.441406 -22.09375 14.546875 -22.09375 C 12.828125 -22.09375 11.535156 -21.847656 10.671875 -21.359375 C 9.816406 -20.878906 9.390625 -20.265625 9.390625 -19.515625 C 9.390625 -18.648438 9.851562 -18.046875 10.78125 -17.703125 C 11.71875 -17.359375 13.195312 -17.03125 15.21875 -16.71875 C 17.488281 -16.34375 19.347656 -15.9375 20.796875 -15.5 C 22.242188 -15.070312 23.5 -14.289062 24.5625 -13.15625 C 25.632812 -12.019531 26.171875 -10.4375 26.171875 -8.40625 C 26.171875 -6.6875 25.648438 -5.15625 24.609375 -3.8125 C 23.578125 -2.476562 22.070312 -1.441406 20.09375 -0.703125 C 18.125 0.0351562 15.78125 0.40625 13.0625 0.40625 Z M 13.0625 0.40625 "/></g></g></g></g></g></svg>